<?xml version="1.0" standalone="no"?><!DOCTYPE svg PUBLIC "-//W3C//DTD SVG 1.1//EN"
        "http://www.w3.org/Graphics/SVG/1.1/DTD/svg11.dtd">
<svg t="1595508935854" class="icon" viewBox="0 0 1389 1024" version="1.1" xmlns="http://www.w3.org/2000/svg" p-id="9826"
     width="97.6640625" height="72">
    <defs>
        <style type="text/css"></style>
    </defs>
    <path d="M377.911151 900.897133a500.976452 500.976452 0 0 0 825.995068-315.552054 2012.245398 2012.245398 0 0 1-416.603843 206.761727 2129.675841 2129.675841 0 0 1-409.391225 108.790327zM1383.921152 240.116105C1359.879091 174.902014 1237.790499 153.940342 1066.866469 174.150699c-8.640116-8.715247-17.430494-17.430494-26.972187-25.619821l-8.940642-7.513144c-8.564984-6.987224-16.67918-13.899317-25.319295-19.909832l-11.795637-8.489853c-8.640116-6.010515-17.580757-11.870768-26.446267-17.355363l-11.720505-5.409464c-12.997739-5.935384-25.469559-14.124711-38.842955-20.285489a336.889384 336.889384 0 0 0-45.980443-18.332072 165.73996 165.73996 0 0 0-21.788118-6.611567l-25.54469-7.513144a97.670874 97.670874 0 0 0-24.567981-4.357623c-8.33959-1.427497-15.026288-3.155521-22.539433-4.357624L751.314415 26.367154c-7.513144-0.901577-15.777603-1.728023-23.891798-2.028549h-24.342587c-8.414721 0-16.528917 0-25.093902 0.450789l-23.365878 2.404206c-8.640116 0.826446-17.2051 1.352366-25.54469 3.005258s-17.129969 3.456046-25.845216 5.334332-15.026288 2.854995-22.539433 4.658149A491.585022 491.585022 0 0 0 487.903581 74.225882c-6.76183 3.380915-12.997739 7.137487-19.383912 10.668665s-15.852734 8.264459-23.591272 12.997739-13.899317 9.39143-21.111935 14.350106-12.546951 8.564984-18.857992 13.448528-13.072871 10.142745-19.383912 15.852734a217.204997 217.204997 0 0 0-18.106678 15.477077l-17.129968 16.979706c-5.70999 5.634858-11.645373 11.795636-17.280232 18.181808s-9.992482 11.945899-15.026288 17.956415-10.96919 13.223134-15.927866 20.360621-9.767087 14.425237-15.026288 22.163775a157.099844 157.099844 0 0 0-11.795636 18.933123 227.873662 227.873662 0 0 0-23.290747 42.374133 324.041907 324.041907 0 0 0-15.777603 39.744533l-5.634858 12.246425a162.359045 162.359045 0 0 0-8.564984 29.150999 30.052577 30.052577 0 0 0-3.681441 15.026288c-1.277235 9.992482-3.080389 19.834701-5.334332 29.601788s-3.080389 20.961672-4.583018 32.381651-1.352366 11.044322-1.878286 16.67918a9.166036 9.166036 0 0 0 0 2.554469C60.781336 588.500599-19.984963 685.119633 4.282492 751.16017c42.374133 114.575448 385.875084 92.937593 766.340703-48.384648s655.822353-348.384494 613.297957-462.659417z m-452.96746 110.818876a93.914302 93.914302 0 1 1-126.295954-123.365827l-1.57776 0.450789a93.83917 93.83917 0 0 1 37.565721-9.91735l-2.779863 0.676183a88.805364 88.805364 0 0 1 35.236646 3.531177 85.123923 85.123923 0 0 1 11.044322 4.13223 93.914302 93.914302 0 0 1 46.806888 124.492798z"
          p-id="9827"></path>
    <path d="M205.487567 81.140116m-75.533545 27.955695a80.540905 80.540905 0 1 0 151.067091-55.91139 80.540905 80.540905 0 1 0-151.067091 55.91139Z"
          p-id="9828"></path>
</svg>